<svg xmlns="http://www.w3.org/2000/svg" width="132.999" height="20.01" viewBox="0 0 132.999 20.01"><defs><style>.a{fill:#fff;}</style></defs><g transform="translate(-0.5 -0.29)"><g transform="translate(-41 -40)"><path class="a" d="M49.21,60q3.72,0,3.72-3.96h0V52.56a2.988,2.988,0,0,0-1.95-3.18q1.71-.66,1.71-3.06h0V44.55q0-3.96-3.72-3.96H41.5V60ZM47.92,48.63H45.7V43.44h2.22a.528.528,0,0,1,.405.18.6.6,0,0,1,.165.42h0v3.99a.6.6,0,0,1-.165.42.528.528,0,0,1-.405.18Zm.24,8.49H45.7V51.57h2.46a.528.528,0,0,1,.4.18.6.6,0,0,1,.165.42h0v4.35a.6.6,0,0,1-.165.42.528.528,0,0,1-.4.18ZM60.089,60V40.59h-4.2V60Zm7.4,0V52.32h1.35L71.718,60h4.29l-3.93-10.5,3.3-8.91h-3.84l-3.03,8.13h-1.02V40.59h-4.2V60Zm18.889,0V56.52h-4.65V51.87h4.35v-3.3h-4.35V44.01h4.65V40.59h-8.85V60Zm6.709,0V52.05H95.1q.57,0,.57.6h0V60h4.2V52.32a2.318,2.318,0,0,0-1.5-2.46q1.71-.66,1.71-3.06h0V44.55q0-3.96-3.72-3.96h-7.47V60Zm2.22-10.89h-2.22V43.44h2.22a.528.528,0,0,1,.405.18.6.6,0,0,1,.165.42h0v4.47a.6.6,0,0,1-.165.42.528.528,0,0,1-.405.18ZM110.115,60.3q3.72,0,3.72-3.96h0V52.17q0-3.9-3.72-3.96h-2.7a.528.528,0,0,1-.4-.18.6.6,0,0,1-.165-.42h0V44.16a.6.6,0,0,1,.165-.42.528.528,0,0,1,.4-.18h1.65a.528.528,0,0,1,.4.18.6.6,0,0,1,.165.42h0v1.53h3.99V44.25q0-3.96-3.72-3.96h-3.33q-3.72,0-3.72,3.96h0v3.87q0,3.96,3.72,3.96h2.7a.528.528,0,0,1,.4.18.6.6,0,0,1,.165.42h0v3.81a.6.6,0,0,1-.165.42.528.528,0,0,1-.4.18h-1.86a.528.528,0,0,1-.4-.18.6.6,0,0,1-.165-.42h0V54.33h-3.99v2.01q0,3.96,3.72,3.96h3.54Zm20.408-.3q3.72,0,3.72-3.96h0V52.56a2.988,2.988,0,0,0-1.95-3.18q1.71-.66,1.71-3.06h0V44.55q0-3.96-3.72-3.96h-7.47V60Zm-1.29-11.37h-2.22V43.44h2.22a.528.528,0,0,1,.4.18.6.6,0,0,1,.165.42h0v3.99a.6.6,0,0,1-.165.42.528.528,0,0,1-.4.18Zm.24,8.49h-2.46V51.57h2.46a.528.528,0,0,1,.4.18.6.6,0,0,1,.165.42h0v4.35a.6.6,0,0,1-.165.42.528.528,0,0,1-.4.18ZM141.4,60V53.49h3.03V60h4.2V44.25q0-3.96-3.72-3.96h-3.99q-3.72,0-3.72,3.96h0V60Zm3.03-9.75H141.4V43.74a.6.6,0,0,1,.165-.42.528.528,0,0,1,.4-.18h1.89a.528.528,0,0,1,.4.18.6.6,0,0,1,.165.42h0ZM159.091,60.3q3.72,0,3.72-3.96h0V52.17q0-3.9-3.72-3.96h-2.7a.528.528,0,0,1-.405-.18.6.6,0,0,1-.165-.42h0V44.16a.6.6,0,0,1,.165-.42.528.528,0,0,1,.405-.18h1.65a.528.528,0,0,1,.4.18.6.6,0,0,1,.165.42h0v1.53h3.99V44.25q0-3.96-3.72-3.96h-3.33q-3.72,0-3.72,3.96h0v3.87q0,3.96,3.72,3.96h2.7a.528.528,0,0,1,.405.18.6.6,0,0,1,.165.42h0v3.81a.6.6,0,0,1-.165.42.528.528,0,0,1-.405.18h-1.86a.528.528,0,0,1-.405-.18.6.6,0,0,1-.165-.42h0V54.33h-3.99v2.01q0,3.96,3.72,3.96h3.54ZM174.5,60V56.52h-4.65V51.87h4.35v-3.3h-4.35V44.01h4.65V40.59h-8.85V60Z"/></g></g></svg>